<?xml version="1.0" standalone="no"?>
<!DOCTYPE svg PUBLIC "-//W3C//DTD SVG 20010904//EN"
 "http://www.w3.org/TR/2001/REC-SVG-20010904/DTD/svg10.dtd">
<svg version="1.0" xmlns="http://www.w3.org/2000/svg"
 width="310.000000pt" height="310.000000pt" viewBox="0 0 310.000000 310.000000"
 preserveAspectRatio="xMidYMid meet">
<metadata>
Created by potrace 1.14, written by Peter Selinger 2001-2017
</metadata>
<g transform="translate(0.000000,310.000000) scale(0.100000,-0.100000)"
fill="#000000" stroke="none">
<path d="M627 2170 c-45 -14 -95 -58 -119 -103 -29 -58 -29 -142 1 -191 l23
-36 -145 0 -145 0 0 -191 0 -191 58 -167 c62 -174 133 -374 145 -403 6 -16 21
-18 111 -18 l104 0 21 42 22 43 20 -43 21 -42 252 0 252 0 19 78 20 77 18 -77
19 -78 283 0 c240 0 283 2 283 14 0 13 4 13 28 0 35 -18 587 -21 657 -3 130
33 199 186 135 297 l-19 32 59 0 60 0 0 315 0 314 -77 3 c-63 2 -77 6 -74 18
7 33 7 45 -1 97 -14 88 -73 164 -158 202 -40 18 -67 20 -280 21 l-235 1 0
-131 c1 -71 0 -130 -1 -130 -2 0 -22 59 -46 130 l-42 130 -621 -1 c-341 0
-633 -5 -648 -9z m877 -91 c4 -4 -33 -131 -40 -138 -2 -3 -49 -4 -104 -4
l-100 1 0 -169 0 -169 -98 0 -97 0 0 168 0 167 -137 1 c-94 1 -141 -3 -148
-10 -6 -8 7 -37 42 -92 28 -43 52 -95 55 -114 5 -43 -25 -96 -63 -110 -14 -6
-126 -10 -250 -10 l-224 0 0 73 0 72 152 -2 c166 -1 188 1 188 22 0 8 -20 48
-45 88 -54 89 -63 123 -42 164 22 42 43 56 90 62 46 7 815 6 821 0z m322 -2
c4 -6 154 -463 154 -470 0 -4 -33 -7 -72 -5 l-73 3 -14 65 c-8 36 -19 68 -23
71 -6 4 -123 4 -150 0 -3 -1 -11 -25 -18 -53 -21 -95 -13 -88 -96 -88 -73 0
-75 1 -68 23 3 12 31 99 61 192 30 94 61 191 69 217 l15 47 57 3 c52 3 155 -1
158 -5z m600 -1 c108 -20 175 -154 121 -241 -7 -11 -23 -36 -35 -56 l-22 -36
103 2 c56 1 107 0 112 -2 8 -3 11 -59 6 -130 -1 -10 -40 -13 -161 -13 l-160 0
-47 43 c-26 23 -60 54 -77 70 -16 15 -31 25 -34 23 -2 -3 -4 -34 -3 -70 l1
-66 -74 0 -73 0 0 238 c1 130 4 239 8 242 11 8 290 4 335 -4z m-1456 -268 l-1
-33 -14 25 c-18 32 -18 40 0 40 10 0 15 -10 15 -32z m460 25 c0 -12 -63 -198
-69 -205 -5 -6 -7 177 -2 205 1 9 71 9 71 0z m-460 -238 c0 -43 -1 -45 -30
-45 l-29 0 27 45 c15 24 28 45 30 45 1 0 2 -20 2 -45z m774 -17 c6 -25 4 -28
-20 -28 -25 0 -26 2 -19 37 12 67 21 65 39 -9z m-195 -185 l-1 -108 -34 100
c-19 54 -34 103 -34 107 0 4 16 8 35 8 l35 0 -1 -107z m732 86 c-24 -26 -52
-82 -54 -109 -1 -11 -2 -20 -4 -20 -1 0 -11 20 -22 45 -11 24 -34 58 -51 75
l-31 30 91 0 91 0 -20 -21z m-1801 -28 c22 -1 32 -13 63 -77 l38 -76 37 73
c20 41 37 75 38 77 0 1 21 3 45 5 l44 2 38 -80 39 -80 39 78 c26 50 45 77 57
78 83 4 115 3 119 -4 2 -4 -31 -113 -74 -242 l-78 -235 -40 0 -40 0 -51 102
-51 103 -52 -103 -52 -103 -41 3 -42 3 -72 220 c-97 291 -92 260 -36 258 26
-1 58 -2 72 -2z m906 -3 c2 -3 40 -112 84 -242 l78 -236 -73 0 c-82 0 -74 -7
-95 87 -6 28 -17 53 -23 56 -10 3 -121 1 -148 -2 -6 -1 -15 -35 -26 -96 -2
-16 -8 -34 -12 -38 -4 -4 -39 -7 -78 -5 l-70 3 47 147 c26 80 60 187 76 237
25 80 31 90 53 93 39 4 181 1 187 -4z m649 -18 c32 -15 53 -36 71 -66 36 -62
30 -124 -18 -197 l-36 -53 182 1 c99 1 184 3 189 4 18 3 3 38 -44 103 -61 84
-70 123 -40 171 31 51 62 59 226 61 161 1 147 8 147 -69 0 -81 6 -75 -76 -75
-81 0 -106 -6 -106 -24 0 -7 22 -45 50 -84 61 -89 70 -128 41 -175 -11 -18
-32 -39 -46 -45 -18 -8 -118 -12 -325 -12 l-298 0 -72 68 c-40 37 -76 69 -81
70 -5 2 -9 -28 -9 -67 l0 -71 -70 0 c-66 0 -70 1 -71 23 0 12 -1 118 -1 236 0
187 2 216 15 220 9 3 86 5 172 4 137 -1 161 -4 200 -23z m225 -212 c0 -5 -9
-8 -20 -8 -22 0 -23 3 -13 39 l6 23 13 -23 c7 -13 13 -27 14 -31z"/>
<path d="M1685 1933 c-17 -42 -31 -80 -33 -85 -2 -4 28 -8 67 -8 39 0 71 2 71
4 0 9 -69 166 -73 166 -1 0 -16 -35 -32 -77z"/>
<path d="M2228 1979 c-2 -5 -1 -38 0 -74 l4 -65 82 0 c91 0 120 13 129 57 6
31 -9 69 -32 79 -24 11 -180 13 -183 3z"/>
<path d="M1272 1357 c-6 -12 -22 -49 -36 -82 l-24 -60 65 -3 c36 -2 68 -1 71
2 4 4 -53 153 -62 163 -2 2 -8 -7 -14 -20z"/>
<path d="M1795 1352 c-3 -3 -5 -36 -5 -74 l0 -68 78 0 c97 0 117 6 131 36 16
35 14 58 -7 84 -16 20 -29 23 -105 25 -47 2 -89 0 -92 -3z"/>
</g>
</svg>
